<mxfile host="Electron" modified="2024-03-16T13:16:50.252Z" agent="Mozilla/5.0 (Windows NT 10.0; Win64; x64) AppleWebKit/537.36 (KHTML, like Gecko) draw.io/23.1.5 Chrome/120.0.6099.109 Electron/28.1.0 Safari/537.36" etag="Afdd9TPuc9-3AVfnyraV" version="23.1.5" type="device" pages="2">
  <diagram name="Page-1" id="SBs-AK8TGKzCLHx1HG1-">
    <mxGraphModel dx="2390" dy="1393" grid="0" gridSize="10" guides="1" tooltips="1" connect="1" arrows="1" fold="1" page="1" pageScale="1" pageWidth="850" pageHeight="1100" math="0" shadow="0">
      <root>
        <mxCell id="0" />
        <mxCell id="1" parent="0" />
        <mxCell id="wdFYyP7IZB3vCb54DyX5-9" value="" style="group" vertex="1" connectable="0" parent="1">
          <mxGeometry x="548" y="57" width="169" height="217" as="geometry" />
        </mxCell>
        <mxCell id="wdFYyP7IZB3vCb54DyX5-5" value="" style="rounded=1;whiteSpace=wrap;html=1;" vertex="1" parent="wdFYyP7IZB3vCb54DyX5-9">
          <mxGeometry width="169" height="217" as="geometry" />
        </mxCell>
        <mxCell id="wdFYyP7IZB3vCb54DyX5-6" value="" style="rounded=0;whiteSpace=wrap;html=1;" vertex="1" parent="wdFYyP7IZB3vCb54DyX5-9">
          <mxGeometry x="47" y="30" width="70" height="40" as="geometry" />
        </mxCell>
        <mxCell id="wdFYyP7IZB3vCb54DyX5-8" value="" style="rounded=0;whiteSpace=wrap;html=1;" vertex="1" parent="wdFYyP7IZB3vCb54DyX5-9">
          <mxGeometry x="47" y="126" width="77" height="40" as="geometry" />
        </mxCell>
        <mxCell id="wdFYyP7IZB3vCb54DyX5-22" value="&lt;b&gt;int a&lt;/b&gt;" style="text;html=1;align=center;verticalAlign=middle;resizable=0;points=[];autosize=1;strokeColor=none;fillColor=none;" vertex="1" parent="wdFYyP7IZB3vCb54DyX5-9">
          <mxGeometry x="60.5" y="70" width="43" height="26" as="geometry" />
        </mxCell>
        <mxCell id="wdFYyP7IZB3vCb54DyX5-23" value="&lt;b&gt;float b&lt;/b&gt;" style="text;html=1;align=center;verticalAlign=middle;resizable=0;points=[];autosize=1;strokeColor=none;fillColor=none;" vertex="1" parent="wdFYyP7IZB3vCb54DyX5-9">
          <mxGeometry x="57.5" y="166" width="54" height="26" as="geometry" />
        </mxCell>
        <mxCell id="wdFYyP7IZB3vCb54DyX5-20" value="&lt;b&gt;int&lt;/b&gt;" style="text;html=1;align=center;verticalAlign=middle;resizable=0;points=[];autosize=1;strokeColor=none;fillColor=none;" vertex="1" parent="1">
          <mxGeometry x="108.5" y="126" width="33" height="26" as="geometry" />
        </mxCell>
        <mxCell id="wdFYyP7IZB3vCb54DyX5-24" value="&lt;b&gt;struct abc&lt;/b&gt;" style="text;html=1;align=center;verticalAlign=middle;resizable=0;points=[];autosize=1;strokeColor=none;fillColor=none;" vertex="1" parent="1">
          <mxGeometry x="595" y="282" width="75" height="26" as="geometry" />
        </mxCell>
        <mxCell id="_a04NKDOX3JuaRjNHRXt-1" value="" style="group" vertex="1" connectable="0" parent="1">
          <mxGeometry x="65" y="57" width="360" height="88" as="geometry" />
        </mxCell>
        <mxCell id="wdFYyP7IZB3vCb54DyX5-10" value="" style="shape=table;startSize=0;container=1;collapsible=0;childLayout=tableLayout;" vertex="1" parent="_a04NKDOX3JuaRjNHRXt-1">
          <mxGeometry width="360" height="40" as="geometry" />
        </mxCell>
        <mxCell id="wdFYyP7IZB3vCb54DyX5-11" value="" style="shape=tableRow;horizontal=0;startSize=0;swimlaneHead=0;swimlaneBody=0;strokeColor=inherit;top=0;left=0;bottom=0;right=0;collapsible=0;dropTarget=0;fillColor=none;points=[[0,0.5],[1,0.5]];portConstraint=eastwest;" vertex="1" parent="wdFYyP7IZB3vCb54DyX5-10">
          <mxGeometry width="360" height="40" as="geometry" />
        </mxCell>
        <mxCell id="wdFYyP7IZB3vCb54DyX5-12" value="" style="shape=partialRectangle;html=1;whiteSpace=wrap;connectable=0;strokeColor=inherit;overflow=hidden;fillColor=none;top=0;left=0;bottom=0;right=0;pointerEvents=1;" vertex="1" parent="wdFYyP7IZB3vCb54DyX5-11">
          <mxGeometry width="60" height="40" as="geometry">
            <mxRectangle width="60" height="40" as="alternateBounds" />
          </mxGeometry>
        </mxCell>
        <mxCell id="wdFYyP7IZB3vCb54DyX5-13" value="" style="shape=partialRectangle;html=1;whiteSpace=wrap;connectable=0;strokeColor=inherit;overflow=hidden;fillColor=none;top=0;left=0;bottom=0;right=0;pointerEvents=1;" vertex="1" parent="wdFYyP7IZB3vCb54DyX5-11">
          <mxGeometry x="60" width="60" height="40" as="geometry">
            <mxRectangle width="60" height="40" as="alternateBounds" />
          </mxGeometry>
        </mxCell>
        <mxCell id="wdFYyP7IZB3vCb54DyX5-14" value="" style="shape=partialRectangle;html=1;whiteSpace=wrap;connectable=0;strokeColor=inherit;overflow=hidden;fillColor=none;top=0;left=0;bottom=0;right=0;pointerEvents=1;" vertex="1" parent="wdFYyP7IZB3vCb54DyX5-11">
          <mxGeometry x="120" width="60" height="40" as="geometry">
            <mxRectangle width="60" height="40" as="alternateBounds" />
          </mxGeometry>
        </mxCell>
        <mxCell id="wdFYyP7IZB3vCb54DyX5-15" value="" style="shape=partialRectangle;html=1;whiteSpace=wrap;connectable=0;strokeColor=inherit;overflow=hidden;fillColor=none;top=0;left=0;bottom=0;right=0;pointerEvents=1;" vertex="1" parent="wdFYyP7IZB3vCb54DyX5-11">
          <mxGeometry x="180" width="60" height="40" as="geometry">
            <mxRectangle width="60" height="40" as="alternateBounds" />
          </mxGeometry>
        </mxCell>
        <mxCell id="wdFYyP7IZB3vCb54DyX5-16" value="" style="shape=partialRectangle;html=1;whiteSpace=wrap;connectable=0;strokeColor=inherit;overflow=hidden;fillColor=none;top=0;left=0;bottom=0;right=0;pointerEvents=1;" vertex="1" parent="wdFYyP7IZB3vCb54DyX5-11">
          <mxGeometry x="240" width="60" height="40" as="geometry">
            <mxRectangle width="60" height="40" as="alternateBounds" />
          </mxGeometry>
        </mxCell>
        <mxCell id="wdFYyP7IZB3vCb54DyX5-17" value="" style="shape=partialRectangle;html=1;whiteSpace=wrap;connectable=0;strokeColor=inherit;overflow=hidden;fillColor=none;top=0;left=0;bottom=0;right=0;pointerEvents=1;" vertex="1" parent="wdFYyP7IZB3vCb54DyX5-11">
          <mxGeometry x="300" width="60" height="40" as="geometry">
            <mxRectangle width="60" height="40" as="alternateBounds" />
          </mxGeometry>
        </mxCell>
        <mxCell id="wdFYyP7IZB3vCb54DyX5-18" value="" style="shape=curlyBracket;whiteSpace=wrap;html=1;rounded=1;labelPosition=left;verticalLabelPosition=middle;align=right;verticalAlign=middle;direction=north;" vertex="1" parent="_a04NKDOX3JuaRjNHRXt-1">
          <mxGeometry y="52" width="120" height="20" as="geometry" />
        </mxCell>
        <mxCell id="wdFYyP7IZB3vCb54DyX5-19" value="" style="shape=curlyBracket;whiteSpace=wrap;html=1;rounded=1;labelPosition=left;verticalLabelPosition=middle;align=right;verticalAlign=middle;direction=north;" vertex="1" parent="_a04NKDOX3JuaRjNHRXt-1">
          <mxGeometry x="120" y="42" width="239" height="20" as="geometry" />
        </mxCell>
        <mxCell id="wdFYyP7IZB3vCb54DyX5-21" value="&lt;b&gt;float&lt;/b&gt;" style="text;html=1;align=center;verticalAlign=middle;resizable=0;points=[];autosize=1;strokeColor=none;fillColor=none;" vertex="1" parent="_a04NKDOX3JuaRjNHRXt-1">
          <mxGeometry x="218" y="62" width="43" height="26" as="geometry" />
        </mxCell>
        <mxCell id="gjEVGWz8HpCAclz9JxW7-2" style="edgeStyle=orthogonalEdgeStyle;rounded=0;orthogonalLoop=1;jettySize=auto;html=1;" edge="1" parent="1" source="gjEVGWz8HpCAclz9JxW7-1" target="wdFYyP7IZB3vCb54DyX5-5">
          <mxGeometry relative="1" as="geometry" />
        </mxCell>
        <mxCell id="gjEVGWz8HpCAclz9JxW7-1" value="100" style="rounded=1;whiteSpace=wrap;html=1;" vertex="1" parent="1">
          <mxGeometry x="278" y="219" width="120" height="60" as="geometry" />
        </mxCell>
        <mxCell id="gjEVGWz8HpCAclz9JxW7-3" value="" style="shape=table;startSize=0;container=1;collapsible=0;childLayout=tableLayout;" vertex="1" parent="1">
          <mxGeometry x="98" y="457" width="653" height="281" as="geometry" />
        </mxCell>
        <mxCell id="gjEVGWz8HpCAclz9JxW7-4" value="" style="shape=tableRow;horizontal=0;startSize=0;swimlaneHead=0;swimlaneBody=0;strokeColor=inherit;top=0;left=0;bottom=0;right=0;collapsible=0;dropTarget=0;fillColor=none;points=[[0,0.5],[1,0.5]];portConstraint=eastwest;" vertex="1" parent="gjEVGWz8HpCAclz9JxW7-3">
          <mxGeometry width="653" height="281" as="geometry" />
        </mxCell>
        <mxCell id="gjEVGWz8HpCAclz9JxW7-5" value="" style="shape=partialRectangle;html=1;whiteSpace=wrap;connectable=0;strokeColor=inherit;overflow=hidden;fillColor=none;top=0;left=0;bottom=0;right=0;pointerEvents=1;" vertex="1" parent="gjEVGWz8HpCAclz9JxW7-4">
          <mxGeometry width="130" height="281" as="geometry">
            <mxRectangle width="130" height="281" as="alternateBounds" />
          </mxGeometry>
        </mxCell>
        <mxCell id="gjEVGWz8HpCAclz9JxW7-6" value="" style="shape=partialRectangle;html=1;whiteSpace=wrap;connectable=0;strokeColor=inherit;overflow=hidden;fillColor=none;top=0;left=0;bottom=0;right=0;pointerEvents=1;" vertex="1" parent="gjEVGWz8HpCAclz9JxW7-4">
          <mxGeometry x="130" width="131" height="281" as="geometry">
            <mxRectangle width="131" height="281" as="alternateBounds" />
          </mxGeometry>
        </mxCell>
        <mxCell id="gjEVGWz8HpCAclz9JxW7-7" value="" style="shape=partialRectangle;html=1;whiteSpace=wrap;connectable=0;strokeColor=inherit;overflow=hidden;fillColor=none;top=0;left=0;bottom=0;right=0;pointerEvents=1;" vertex="1" parent="gjEVGWz8HpCAclz9JxW7-4">
          <mxGeometry x="261" width="131" height="281" as="geometry">
            <mxRectangle width="131" height="281" as="alternateBounds" />
          </mxGeometry>
        </mxCell>
        <mxCell id="gjEVGWz8HpCAclz9JxW7-8" value="" style="shape=partialRectangle;html=1;whiteSpace=wrap;connectable=0;strokeColor=inherit;overflow=hidden;fillColor=none;top=0;left=0;bottom=0;right=0;pointerEvents=1;" vertex="1" parent="gjEVGWz8HpCAclz9JxW7-4">
          <mxGeometry x="392" width="131" height="281" as="geometry">
            <mxRectangle width="131" height="281" as="alternateBounds" />
          </mxGeometry>
        </mxCell>
        <mxCell id="gjEVGWz8HpCAclz9JxW7-9" value="" style="shape=partialRectangle;html=1;whiteSpace=wrap;connectable=0;strokeColor=inherit;overflow=hidden;fillColor=none;top=0;left=0;bottom=0;right=0;pointerEvents=1;" vertex="1" parent="gjEVGWz8HpCAclz9JxW7-4">
          <mxGeometry x="523" width="130" height="281" as="geometry">
            <mxRectangle width="130" height="281" as="alternateBounds" />
          </mxGeometry>
        </mxCell>
        <mxCell id="gjEVGWz8HpCAclz9JxW7-10" value="" style="group" vertex="1" connectable="0" parent="1">
          <mxGeometry x="109" y="501" width="106" height="180" as="geometry" />
        </mxCell>
        <mxCell id="gjEVGWz8HpCAclz9JxW7-11" value="" style="rounded=1;whiteSpace=wrap;html=1;" vertex="1" parent="gjEVGWz8HpCAclz9JxW7-10">
          <mxGeometry width="106" height="180" as="geometry" />
        </mxCell>
        <mxCell id="gjEVGWz8HpCAclz9JxW7-12" value="" style="rounded=0;whiteSpace=wrap;html=1;" vertex="1" parent="gjEVGWz8HpCAclz9JxW7-10">
          <mxGeometry x="29.4792899408284" y="24.88479262672811" width="43.90532544378698" height="33.17972350230414" as="geometry" />
        </mxCell>
        <mxCell id="gjEVGWz8HpCAclz9JxW7-13" value="" style="rounded=0;whiteSpace=wrap;html=1;" vertex="1" parent="gjEVGWz8HpCAclz9JxW7-10">
          <mxGeometry x="29.4792899408284" y="104.51612903225806" width="48.29585798816568" height="33.17972350230414" as="geometry" />
        </mxCell>
        <mxCell id="gjEVGWz8HpCAclz9JxW7-14" value="&lt;b&gt;int a&lt;/b&gt;" style="text;html=1;align=center;verticalAlign=middle;resizable=0;points=[];autosize=1;strokeColor=none;fillColor=none;" vertex="1" parent="gjEVGWz8HpCAclz9JxW7-10">
          <mxGeometry x="37.946745562130175" y="58.064516129032256" width="43" height="26" as="geometry" />
        </mxCell>
        <mxCell id="gjEVGWz8HpCAclz9JxW7-15" value="&lt;b&gt;float b&lt;/b&gt;" style="text;html=1;align=center;verticalAlign=middle;resizable=0;points=[];autosize=1;strokeColor=none;fillColor=none;" vertex="1" parent="gjEVGWz8HpCAclz9JxW7-10">
          <mxGeometry x="36.065088757396445" y="137.6958525345622" width="54" height="26" as="geometry" />
        </mxCell>
        <mxCell id="gjEVGWz8HpCAclz9JxW7-17" value="" style="group" vertex="1" connectable="0" parent="1">
          <mxGeometry x="239" y="500" width="106" height="180" as="geometry" />
        </mxCell>
        <mxCell id="gjEVGWz8HpCAclz9JxW7-18" value="" style="rounded=1;whiteSpace=wrap;html=1;" vertex="1" parent="gjEVGWz8HpCAclz9JxW7-17">
          <mxGeometry width="106" height="180" as="geometry" />
        </mxCell>
        <mxCell id="gjEVGWz8HpCAclz9JxW7-19" value="" style="rounded=0;whiteSpace=wrap;html=1;" vertex="1" parent="gjEVGWz8HpCAclz9JxW7-17">
          <mxGeometry x="29.4792899408284" y="24.88479262672811" width="43.90532544378698" height="33.17972350230414" as="geometry" />
        </mxCell>
        <mxCell id="gjEVGWz8HpCAclz9JxW7-20" value="" style="rounded=0;whiteSpace=wrap;html=1;" vertex="1" parent="gjEVGWz8HpCAclz9JxW7-17">
          <mxGeometry x="29.4792899408284" y="104.51612903225806" width="48.29585798816568" height="33.17972350230414" as="geometry" />
        </mxCell>
        <mxCell id="gjEVGWz8HpCAclz9JxW7-21" value="&lt;b&gt;int a&lt;/b&gt;" style="text;html=1;align=center;verticalAlign=middle;resizable=0;points=[];autosize=1;strokeColor=none;fillColor=none;" vertex="1" parent="gjEVGWz8HpCAclz9JxW7-17">
          <mxGeometry x="37.946745562130175" y="58.064516129032256" width="43" height="26" as="geometry" />
        </mxCell>
        <mxCell id="gjEVGWz8HpCAclz9JxW7-22" value="&lt;b&gt;float b&lt;/b&gt;" style="text;html=1;align=center;verticalAlign=middle;resizable=0;points=[];autosize=1;strokeColor=none;fillColor=none;" vertex="1" parent="gjEVGWz8HpCAclz9JxW7-17">
          <mxGeometry x="36.065088757396445" y="137.6958525345622" width="54" height="26" as="geometry" />
        </mxCell>
        <mxCell id="gjEVGWz8HpCAclz9JxW7-23" value="" style="group" vertex="1" connectable="0" parent="1">
          <mxGeometry x="372" y="500" width="106" height="180" as="geometry" />
        </mxCell>
        <mxCell id="gjEVGWz8HpCAclz9JxW7-24" value="" style="rounded=1;whiteSpace=wrap;html=1;" vertex="1" parent="gjEVGWz8HpCAclz9JxW7-23">
          <mxGeometry width="106" height="180" as="geometry" />
        </mxCell>
        <mxCell id="gjEVGWz8HpCAclz9JxW7-25" value="" style="rounded=0;whiteSpace=wrap;html=1;" vertex="1" parent="gjEVGWz8HpCAclz9JxW7-23">
          <mxGeometry x="29.4792899408284" y="24.88479262672811" width="43.90532544378698" height="33.17972350230414" as="geometry" />
        </mxCell>
        <mxCell id="gjEVGWz8HpCAclz9JxW7-26" value="" style="rounded=0;whiteSpace=wrap;html=1;" vertex="1" parent="gjEVGWz8HpCAclz9JxW7-23">
          <mxGeometry x="29.4792899408284" y="104.51612903225806" width="48.29585798816568" height="33.17972350230414" as="geometry" />
        </mxCell>
        <mxCell id="gjEVGWz8HpCAclz9JxW7-27" value="&lt;b&gt;int a&lt;/b&gt;" style="text;html=1;align=center;verticalAlign=middle;resizable=0;points=[];autosize=1;strokeColor=none;fillColor=none;" vertex="1" parent="gjEVGWz8HpCAclz9JxW7-23">
          <mxGeometry x="37.946745562130175" y="58.064516129032256" width="43" height="26" as="geometry" />
        </mxCell>
        <mxCell id="gjEVGWz8HpCAclz9JxW7-28" value="&lt;b&gt;float b&lt;/b&gt;" style="text;html=1;align=center;verticalAlign=middle;resizable=0;points=[];autosize=1;strokeColor=none;fillColor=none;" vertex="1" parent="gjEVGWz8HpCAclz9JxW7-23">
          <mxGeometry x="36.065088757396445" y="137.6958525345622" width="54" height="26" as="geometry" />
        </mxCell>
        <mxCell id="gjEVGWz8HpCAclz9JxW7-29" value="" style="group" vertex="1" connectable="0" parent="1">
          <mxGeometry x="501" y="499" width="106" height="180" as="geometry" />
        </mxCell>
        <mxCell id="gjEVGWz8HpCAclz9JxW7-30" value="" style="rounded=1;whiteSpace=wrap;html=1;" vertex="1" parent="gjEVGWz8HpCAclz9JxW7-29">
          <mxGeometry width="106" height="180" as="geometry" />
        </mxCell>
        <mxCell id="gjEVGWz8HpCAclz9JxW7-31" value="" style="rounded=0;whiteSpace=wrap;html=1;" vertex="1" parent="gjEVGWz8HpCAclz9JxW7-29">
          <mxGeometry x="29.4792899408284" y="24.88479262672811" width="43.90532544378698" height="33.17972350230414" as="geometry" />
        </mxCell>
        <mxCell id="gjEVGWz8HpCAclz9JxW7-32" value="" style="rounded=0;whiteSpace=wrap;html=1;" vertex="1" parent="gjEVGWz8HpCAclz9JxW7-29">
          <mxGeometry x="29.4792899408284" y="104.51612903225806" width="48.29585798816568" height="33.17972350230414" as="geometry" />
        </mxCell>
        <mxCell id="gjEVGWz8HpCAclz9JxW7-33" value="&lt;b&gt;int a&lt;/b&gt;" style="text;html=1;align=center;verticalAlign=middle;resizable=0;points=[];autosize=1;strokeColor=none;fillColor=none;" vertex="1" parent="gjEVGWz8HpCAclz9JxW7-29">
          <mxGeometry x="37.946745562130175" y="58.064516129032256" width="43" height="26" as="geometry" />
        </mxCell>
        <mxCell id="gjEVGWz8HpCAclz9JxW7-34" value="&lt;b&gt;float b&lt;/b&gt;" style="text;html=1;align=center;verticalAlign=middle;resizable=0;points=[];autosize=1;strokeColor=none;fillColor=none;" vertex="1" parent="gjEVGWz8HpCAclz9JxW7-29">
          <mxGeometry x="36.065088757396445" y="137.6958525345622" width="54" height="26" as="geometry" />
        </mxCell>
        <mxCell id="gjEVGWz8HpCAclz9JxW7-35" value="" style="group" vertex="1" connectable="0" parent="1">
          <mxGeometry x="631" y="501" width="106" height="180" as="geometry" />
        </mxCell>
        <mxCell id="gjEVGWz8HpCAclz9JxW7-36" value="" style="rounded=1;whiteSpace=wrap;html=1;" vertex="1" parent="gjEVGWz8HpCAclz9JxW7-35">
          <mxGeometry width="106" height="180" as="geometry" />
        </mxCell>
        <mxCell id="gjEVGWz8HpCAclz9JxW7-37" value="" style="rounded=0;whiteSpace=wrap;html=1;" vertex="1" parent="gjEVGWz8HpCAclz9JxW7-35">
          <mxGeometry x="29.4792899408284" y="24.88479262672811" width="43.90532544378698" height="33.17972350230414" as="geometry" />
        </mxCell>
        <mxCell id="gjEVGWz8HpCAclz9JxW7-38" value="" style="rounded=0;whiteSpace=wrap;html=1;" vertex="1" parent="gjEVGWz8HpCAclz9JxW7-35">
          <mxGeometry x="29.4792899408284" y="104.51612903225806" width="48.29585798816568" height="33.17972350230414" as="geometry" />
        </mxCell>
        <mxCell id="gjEVGWz8HpCAclz9JxW7-39" value="&lt;b&gt;int a&lt;/b&gt;" style="text;html=1;align=center;verticalAlign=middle;resizable=0;points=[];autosize=1;strokeColor=none;fillColor=none;" vertex="1" parent="gjEVGWz8HpCAclz9JxW7-35">
          <mxGeometry x="37.946745562130175" y="58.064516129032256" width="43" height="26" as="geometry" />
        </mxCell>
        <mxCell id="gjEVGWz8HpCAclz9JxW7-40" value="&lt;b&gt;float b&lt;/b&gt;" style="text;html=1;align=center;verticalAlign=middle;resizable=0;points=[];autosize=1;strokeColor=none;fillColor=none;" vertex="1" parent="gjEVGWz8HpCAclz9JxW7-35">
          <mxGeometry x="36.065088757396445" y="137.6958525345622" width="54" height="26" as="geometry" />
        </mxCell>
      </root>
    </mxGraphModel>
  </diagram>
  <diagram id="Xxvc_F6GEkBESeaVV1Si" name="Page-2">
    <mxGraphModel dx="819" dy="478" grid="0" gridSize="10" guides="1" tooltips="1" connect="1" arrows="1" fold="1" page="1" pageScale="1" pageWidth="850" pageHeight="1100" math="0" shadow="0">
      <root>
        <mxCell id="0" />
        <mxCell id="1" parent="0" />
        <mxCell id="ykW4eF8JMmrbJG7nthWR-71" value="&lt;b&gt;structure&lt;/b&gt;" style="text;html=1;align=center;verticalAlign=middle;resizable=0;points=[];autosize=1;strokeColor=none;fillColor=none;" vertex="1" parent="1">
          <mxGeometry x="666" y="258" width="70" height="26" as="geometry" />
        </mxCell>
        <mxCell id="ykW4eF8JMmrbJG7nthWR-73" value="" style="group" vertex="1" connectable="0" parent="1">
          <mxGeometry x="86" y="36" width="691" height="137" as="geometry" />
        </mxCell>
        <mxCell id="ykW4eF8JMmrbJG7nthWR-37" value="" style="shape=table;startSize=0;container=1;collapsible=0;childLayout=tableLayout;" vertex="1" parent="ykW4eF8JMmrbJG7nthWR-73">
          <mxGeometry x="115.16666666666666" y="1.2342342342342343" width="575.8333333333333" height="49.36936936936937" as="geometry" />
        </mxCell>
        <mxCell id="ykW4eF8JMmrbJG7nthWR-38" value="" style="shape=tableRow;horizontal=0;startSize=0;swimlaneHead=0;swimlaneBody=0;strokeColor=inherit;top=0;left=0;bottom=0;right=0;collapsible=0;dropTarget=0;fillColor=none;points=[[0,0.5],[1,0.5]];portConstraint=eastwest;" vertex="1" parent="ykW4eF8JMmrbJG7nthWR-37">
          <mxGeometry width="575.8333333333333" height="49" as="geometry" />
        </mxCell>
        <mxCell id="ykW4eF8JMmrbJG7nthWR-47" value="11.5" style="shape=partialRectangle;html=1;whiteSpace=wrap;connectable=0;strokeColor=inherit;overflow=hidden;fillColor=none;top=0;left=0;bottom=0;right=0;pointerEvents=1;" vertex="1" parent="ykW4eF8JMmrbJG7nthWR-38">
          <mxGeometry width="64" height="49" as="geometry">
            <mxRectangle width="64" height="49" as="alternateBounds" />
          </mxGeometry>
        </mxCell>
        <mxCell id="ykW4eF8JMmrbJG7nthWR-39" value="12.5" style="shape=partialRectangle;html=1;whiteSpace=wrap;connectable=0;strokeColor=inherit;overflow=hidden;fillColor=none;top=0;left=0;bottom=0;right=0;pointerEvents=1;" vertex="1" parent="ykW4eF8JMmrbJG7nthWR-38">
          <mxGeometry x="64" width="64" height="49" as="geometry">
            <mxRectangle width="64" height="49" as="alternateBounds" />
          </mxGeometry>
        </mxCell>
        <mxCell id="ykW4eF8JMmrbJG7nthWR-40" value="13.5" style="shape=partialRectangle;html=1;whiteSpace=wrap;connectable=0;strokeColor=inherit;overflow=hidden;fillColor=none;top=0;left=0;bottom=0;right=0;pointerEvents=1;" vertex="1" parent="ykW4eF8JMmrbJG7nthWR-38">
          <mxGeometry x="128" width="64" height="49" as="geometry">
            <mxRectangle width="64" height="49" as="alternateBounds" />
          </mxGeometry>
        </mxCell>
        <mxCell id="ykW4eF8JMmrbJG7nthWR-41" value="14.5" style="shape=partialRectangle;html=1;whiteSpace=wrap;connectable=0;strokeColor=inherit;overflow=hidden;fillColor=none;top=0;left=0;bottom=0;right=0;pointerEvents=1;" vertex="1" parent="ykW4eF8JMmrbJG7nthWR-38">
          <mxGeometry x="192" width="64" height="49" as="geometry">
            <mxRectangle width="64" height="49" as="alternateBounds" />
          </mxGeometry>
        </mxCell>
        <mxCell id="ykW4eF8JMmrbJG7nthWR-42" value="16.5" style="shape=partialRectangle;html=1;whiteSpace=wrap;connectable=0;strokeColor=inherit;overflow=hidden;fillColor=none;top=0;left=0;bottom=0;right=0;pointerEvents=1;" vertex="1" parent="ykW4eF8JMmrbJG7nthWR-38">
          <mxGeometry x="256" width="64" height="49" as="geometry">
            <mxRectangle width="64" height="49" as="alternateBounds" />
          </mxGeometry>
        </mxCell>
        <mxCell id="ykW4eF8JMmrbJG7nthWR-43" value="15.5" style="shape=partialRectangle;html=1;whiteSpace=wrap;connectable=0;strokeColor=inherit;overflow=hidden;fillColor=none;top=0;left=0;bottom=0;right=0;pointerEvents=1;" vertex="1" parent="ykW4eF8JMmrbJG7nthWR-38">
          <mxGeometry x="320" width="64" height="49" as="geometry">
            <mxRectangle width="64" height="49" as="alternateBounds" />
          </mxGeometry>
        </mxCell>
        <mxCell id="ykW4eF8JMmrbJG7nthWR-44" value="17.45" style="shape=partialRectangle;html=1;whiteSpace=wrap;connectable=0;strokeColor=inherit;overflow=hidden;fillColor=none;top=0;left=0;bottom=0;right=0;pointerEvents=1;" vertex="1" parent="ykW4eF8JMmrbJG7nthWR-38">
          <mxGeometry x="384" width="64" height="49" as="geometry">
            <mxRectangle width="64" height="49" as="alternateBounds" />
          </mxGeometry>
        </mxCell>
        <mxCell id="ykW4eF8JMmrbJG7nthWR-45" value="18.75" style="shape=partialRectangle;html=1;whiteSpace=wrap;connectable=0;strokeColor=inherit;overflow=hidden;fillColor=none;top=0;left=0;bottom=0;right=0;pointerEvents=1;" vertex="1" parent="ykW4eF8JMmrbJG7nthWR-38">
          <mxGeometry x="448" width="64" height="49" as="geometry">
            <mxRectangle width="64" height="49" as="alternateBounds" />
          </mxGeometry>
        </mxCell>
        <mxCell id="ykW4eF8JMmrbJG7nthWR-46" value="19.65" style="shape=partialRectangle;html=1;whiteSpace=wrap;connectable=0;strokeColor=inherit;overflow=hidden;fillColor=none;top=0;left=0;bottom=0;right=0;pointerEvents=1;" vertex="1" parent="ykW4eF8JMmrbJG7nthWR-38">
          <mxGeometry x="512" width="64" height="49" as="geometry">
            <mxRectangle width="64" height="49" as="alternateBounds" />
          </mxGeometry>
        </mxCell>
        <mxCell id="ykW4eF8JMmrbJG7nthWR-58" value="" style="shape=table;startSize=0;container=1;collapsible=0;childLayout=tableLayout;" vertex="1" parent="ykW4eF8JMmrbJG7nthWR-73">
          <mxGeometry x="115.16666666666666" y="87.63063063063063" width="575.8333333333333" height="49.36936936936937" as="geometry" />
        </mxCell>
        <mxCell id="ykW4eF8JMmrbJG7nthWR-59" value="" style="shape=tableRow;horizontal=0;startSize=0;swimlaneHead=0;swimlaneBody=0;strokeColor=inherit;top=0;left=0;bottom=0;right=0;collapsible=0;dropTarget=0;fillColor=none;points=[[0,0.5],[1,0.5]];portConstraint=eastwest;" vertex="1" parent="ykW4eF8JMmrbJG7nthWR-58">
          <mxGeometry width="575.8333333333333" height="49" as="geometry" />
        </mxCell>
        <mxCell id="ykW4eF8JMmrbJG7nthWR-60" value="15" style="shape=partialRectangle;html=1;whiteSpace=wrap;connectable=0;strokeColor=inherit;overflow=hidden;fillColor=none;top=0;left=0;bottom=0;right=0;pointerEvents=1;" vertex="1" parent="ykW4eF8JMmrbJG7nthWR-59">
          <mxGeometry width="64" height="49" as="geometry">
            <mxRectangle width="64" height="49" as="alternateBounds" />
          </mxGeometry>
        </mxCell>
        <mxCell id="ykW4eF8JMmrbJG7nthWR-61" value="25" style="shape=partialRectangle;html=1;whiteSpace=wrap;connectable=0;strokeColor=inherit;overflow=hidden;fillColor=none;top=0;left=0;bottom=0;right=0;pointerEvents=1;" vertex="1" parent="ykW4eF8JMmrbJG7nthWR-59">
          <mxGeometry x="64" width="64" height="49" as="geometry">
            <mxRectangle width="64" height="49" as="alternateBounds" />
          </mxGeometry>
        </mxCell>
        <mxCell id="ykW4eF8JMmrbJG7nthWR-62" value="35" style="shape=partialRectangle;html=1;whiteSpace=wrap;connectable=0;strokeColor=inherit;overflow=hidden;fillColor=none;top=0;left=0;bottom=0;right=0;pointerEvents=1;" vertex="1" parent="ykW4eF8JMmrbJG7nthWR-59">
          <mxGeometry x="128" width="64" height="49" as="geometry">
            <mxRectangle width="64" height="49" as="alternateBounds" />
          </mxGeometry>
        </mxCell>
        <mxCell id="ykW4eF8JMmrbJG7nthWR-63" value="45" style="shape=partialRectangle;html=1;whiteSpace=wrap;connectable=0;strokeColor=inherit;overflow=hidden;fillColor=none;top=0;left=0;bottom=0;right=0;pointerEvents=1;" vertex="1" parent="ykW4eF8JMmrbJG7nthWR-59">
          <mxGeometry x="192" width="64" height="49" as="geometry">
            <mxRectangle width="64" height="49" as="alternateBounds" />
          </mxGeometry>
        </mxCell>
        <mxCell id="ykW4eF8JMmrbJG7nthWR-64" value="55" style="shape=partialRectangle;html=1;whiteSpace=wrap;connectable=0;strokeColor=inherit;overflow=hidden;fillColor=none;top=0;left=0;bottom=0;right=0;pointerEvents=1;" vertex="1" parent="ykW4eF8JMmrbJG7nthWR-59">
          <mxGeometry x="256" width="64" height="49" as="geometry">
            <mxRectangle width="64" height="49" as="alternateBounds" />
          </mxGeometry>
        </mxCell>
        <mxCell id="ykW4eF8JMmrbJG7nthWR-65" value="65" style="shape=partialRectangle;html=1;whiteSpace=wrap;connectable=0;strokeColor=inherit;overflow=hidden;fillColor=none;top=0;left=0;bottom=0;right=0;pointerEvents=1;" vertex="1" parent="ykW4eF8JMmrbJG7nthWR-59">
          <mxGeometry x="320" width="64" height="49" as="geometry">
            <mxRectangle width="64" height="49" as="alternateBounds" />
          </mxGeometry>
        </mxCell>
        <mxCell id="ykW4eF8JMmrbJG7nthWR-66" value="75" style="shape=partialRectangle;html=1;whiteSpace=wrap;connectable=0;strokeColor=inherit;overflow=hidden;fillColor=none;top=0;left=0;bottom=0;right=0;pointerEvents=1;" vertex="1" parent="ykW4eF8JMmrbJG7nthWR-59">
          <mxGeometry x="384" width="64" height="49" as="geometry">
            <mxRectangle width="64" height="49" as="alternateBounds" />
          </mxGeometry>
        </mxCell>
        <mxCell id="ykW4eF8JMmrbJG7nthWR-67" value="85" style="shape=partialRectangle;html=1;whiteSpace=wrap;connectable=0;strokeColor=inherit;overflow=hidden;fillColor=none;top=0;left=0;bottom=0;right=0;pointerEvents=1;" vertex="1" parent="ykW4eF8JMmrbJG7nthWR-59">
          <mxGeometry x="448" width="64" height="49" as="geometry">
            <mxRectangle width="64" height="49" as="alternateBounds" />
          </mxGeometry>
        </mxCell>
        <mxCell id="ykW4eF8JMmrbJG7nthWR-68" value="95" style="shape=partialRectangle;html=1;whiteSpace=wrap;connectable=0;strokeColor=inherit;overflow=hidden;fillColor=none;top=0;left=0;bottom=0;right=0;pointerEvents=1;" vertex="1" parent="ykW4eF8JMmrbJG7nthWR-59">
          <mxGeometry x="512" width="64" height="49" as="geometry">
            <mxRectangle width="64" height="49" as="alternateBounds" />
          </mxGeometry>
        </mxCell>
        <mxCell id="ykW4eF8JMmrbJG7nthWR-69" value="&lt;b&gt;math&lt;/b&gt;" style="text;html=1;align=center;verticalAlign=middle;resizable=0;points=[];autosize=1;strokeColor=none;fillColor=none;" vertex="1" parent="ykW4eF8JMmrbJG7nthWR-73">
          <mxGeometry x="8.530864197530864" width="47" height="26" as="geometry" />
        </mxCell>
        <mxCell id="ykW4eF8JMmrbJG7nthWR-70" value="&lt;b&gt;physics&lt;/b&gt;" style="text;html=1;align=center;verticalAlign=middle;resizable=0;points=[];autosize=1;strokeColor=none;fillColor=none;" vertex="1" parent="ykW4eF8JMmrbJG7nthWR-73">
          <mxGeometry y="92.56756756756756" width="63" height="26" as="geometry" />
        </mxCell>
        <mxCell id="ykW4eF8JMmrbJG7nthWR-77" style="edgeStyle=orthogonalEdgeStyle;rounded=0;orthogonalLoop=1;jettySize=auto;html=1;" edge="1" parent="1" source="ykW4eF8JMmrbJG7nthWR-74" target="ykW4eF8JMmrbJG7nthWR-76">
          <mxGeometry relative="1" as="geometry" />
        </mxCell>
        <mxCell id="ykW4eF8JMmrbJG7nthWR-74" value="&lt;b&gt;Abstract Data Type&lt;/b&gt;" style="text;html=1;align=center;verticalAlign=middle;resizable=0;points=[];autosize=1;strokeColor=none;fillColor=none;" vertex="1" parent="1">
          <mxGeometry x="77" y="250" width="126" height="26" as="geometry" />
        </mxCell>
        <mxCell id="ykW4eF8JMmrbJG7nthWR-75" style="edgeStyle=orthogonalEdgeStyle;rounded=0;orthogonalLoop=1;jettySize=auto;html=1;entryX=-0.035;entryY=0.231;entryDx=0;entryDy=0;entryPerimeter=0;" edge="1" parent="1" source="ykW4eF8JMmrbJG7nthWR-74" target="ykW4eF8JMmrbJG7nthWR-71">
          <mxGeometry relative="1" as="geometry" />
        </mxCell>
        <mxCell id="ykW4eF8JMmrbJG7nthWR-76" value="&lt;b&gt;struct abc{&lt;br&gt;&amp;nbsp; &amp;nbsp; int a;&lt;br&gt;&amp;nbsp; &amp;nbsp; float b;&lt;br&gt;&lt;div style=&quot;&quot;&gt;&lt;b style=&quot;background-color: initial;&quot;&gt;};&lt;/b&gt;&lt;/div&gt;&lt;/b&gt;" style="text;html=1;align=left;verticalAlign=middle;resizable=0;points=[];autosize=1;strokeColor=none;fillColor=none;" vertex="1" parent="1">
          <mxGeometry x="265" y="295" width="80" height="70" as="geometry" />
        </mxCell>
      </root>
    </mxGraphModel>
  </diagram>
</mxfile>
